<svg xmlns="http://www.w3.org/2000/svg" fill="none" viewBox="0 0 48 48"><path fill="#002B50" fill-rule="evenodd" d="M24 22.24a7.258 7.258 0 1 0 0 14.515 7.258 7.258 0 0 0 0-14.516m-4.257 7.257a4.258 4.258 0 1 1 8.515 0 4.258 4.258 0 0 1-8.515 0" clip-rule="evenodd"/><path fill="#002B50" d="M29.141 8.38a1.5 1.5 0 0 1 1.5 1.5v3.301a1.5 1.5 0 0 1-3 0V9.88a1.5 1.5 0 0 1 1.5-1.5"/><path fill="#002B50" fill-rule="evenodd" d="M36.37 3.554a4.06 4.06 0 0 1 2.876 1.195l4.112 4.13a4.06 4.06 0 0 1 1.183 2.864v29.393a3.5 3.5 0 0 1-3.5 3.5H6.959a3.5 3.5 0 0 1-3.5-3.5V7.054a3.5 3.5 0 0 1 3.5-3.5zm-29.91 3.5a.5.5 0 0 1 .5-.5h2.765v9.453a3.5 3.5 0 0 0 3.5 3.5h19.134a3.5 3.5 0 0 0 3.5-3.5V6.554h.51c.282 0 .552.112.75.312l4.113 4.13c.198.198.309.466.309.747v29.393a.5.5 0 0 1-.5.5H6.959a.5.5 0 0 1-.5-.5zm26.399-.5v9.453a.5.5 0 0 1-.5.5H13.225a.5.5 0 0 1-.5-.5V6.554z" clip-rule="evenodd"/></svg>