<svg xmlns="http://www.w3.org/2000/svg" fill="none" viewBox="0 0 48 48"><path fill="#002B50" d="M46.05 20.329c-.78-.816-2.13.112-3.335-1.01-.273-.26-.398-.553-.381-.895.08-1.009-1.114-1.738-1.975-1.206-.264.152-1.047.15-1.834-.25-.475-.24-1.29-.802-1.402-1.85a1.32 1.32 0 0 0-1.293-1.177c-1.334-.006-2.412-2.13-1.813-3.272.318-.679-.063-1.55-.777-1.779-.525-.18-2.119-.728-1.79-3.412A1.316 1.316 0 0 0 30.096 4c-4.858.128-9.566 2.67-12.374 6.63C8.947 11.265 2 18.606 2 27.54c-.09 17.622 24.135 23.3 31.988 7.822 6.593-1.381 11.822-7.124 12.44-13.975a1.32 1.32 0 0 0-.379-1.058M31.91 33.026C25.986 46.928 4.973 42.83 4.88 27.54c-.044-7.837 6.555-14.185 14.168-14.071 9.817-.153 16.86 10.645 12.862 19.557m3.585-9.196c1.944-.218 2.322 2.62.39 2.917a17 17 0 0 0-.39-2.917m7.87-.373c-1.192 4.214-4.309 7.375-8.129 8.798.25-.864.435-1.757.544-2.671 2.558.13 4.584-2.37 4.236-4.854-.29-2.497-2.933-4.43-5.37-3.598-2.276-5.555-7.42-9.643-13.58-10.412 2.031-2.135 4.82-3.552 7.729-3.962.15 1.813 1.003 3.238 2.46 4.106-.358 2.227 1.277 4.956 3.47 5.548.618 2.064 3.122 3.638 5.27 3.532.622 1.428 2.025 2.316 3.599 2.574q-.099.475-.23.939"/><path fill="#002B50" d="M24.217 26.209c-6.144.222-6.137 9.062 0 9.28 6.143-.22 6.137-9.064 0-9.28m1.597 5.38c-.992 2.03-4.038.724-3.226-1.406.953-2.163 4.162-.784 3.226 1.406M12.788 19.59c-2.888-2.246-7.486.047-7.37 3.75 0 2.558 2.08 4.64 4.64 4.64 4.502 0 6.302-5.835 2.73-8.39m-2.73 5.51c-2.32-.06-2.32-3.46 0-3.52 2.32.06 2.32 3.46 0 3.52m10.646-9.866c-6.118.16-6.117 9.12 0 9.28 6.119-.16 6.117-9.12 0-9.28m0 6.4c-2.32-.061-2.32-3.46 0-3.52 2.321.06 2.32 3.46 0 3.52m-7.066 7.472c-6.119.16-6.118 9.12 0 9.28 6.118-.161 6.116-9.12 0-9.28m0 6.4c-2.321-.061-2.32-3.46 0-3.52 2.32.06 2.32 3.459 0 3.52M35.784 5.454c-.033 1.936 2.802 2.055 2.932.123.033-1.936-2.802-2.055-2.933-.123m5.044 6.54c-.032 1.936 2.803 2.056 2.933.123.033-1.936-2.802-2.055-2.933-.123m1.855-6.034c-.033 1.936 2.802 2.055 2.933.123.032-1.936-2.803-2.055-2.933-.123"/></svg>