<svg xmlns="http://www.w3.org/2000/svg" fill="none" viewBox="0 0 48 48"><path fill="#002B50" fill-rule="evenodd" d="M44.465 44a1.537 1.537 0 0 1-1.535-1.538c0-1.889-3.72-4-8.697-4-4.978 0-8.698 2.112-8.698 4 0 .85-.687 1.538-1.535 1.538a1.537 1.537 0 0 1-1.535-1.538c0-1.889-3.72-4-8.698-4s-8.697 2.112-8.697 4c0 .85-.687 1.538-1.535 1.538A1.537 1.537 0 0 1 2 42.462V11.077C2 7.109 7.169 4 13.767 4 18.203 4 21.992 5.404 24 7.53 26.008 5.405 29.797 4 34.233 4 40.83 4 46 7.109 46 11.077v31.385c0 .85-.687 1.538-1.535 1.538M22.5 37.671V11.405a1.6 1.6 0 0 1-.035-.328c0-1.888-3.72-4-8.698-4s-8.697 2.113-8.697 4v26.57a16.13 16.13 0 0 1 8.697-2.262c3.499 0 6.596.873 8.733 2.286m3 0V11.405q.035-.16.035-.328c0-1.887 3.72-4 8.698-4s8.697 2.112 8.697 4v26.571a16.13 16.13 0 0 0-8.697-2.263c-3.499 0-6.595.873-8.733 2.286" clip-rule="evenodd"/></svg>