<svg xmlns="http://www.w3.org/2000/svg" xmlns:xlink="http://www.w3.org/1999/xlink" width="350" zoomAndPan="magnify" viewBox="0 0 262.5 74.999997" height="100" preserveAspectRatio="xMidYMid meet" version="1.0"><defs><g/><clipPath id="b0efeb4b3b"><path d="M 30 11.027344 L 64 11.027344 L 64 62 L 30 62 Z M 30 11.027344 " clip-rule="nonzero"/></clipPath></defs><g clip-path="url(#b0efeb4b3b)"><path fill="#f68c11" d="M 53.820312 33.886719 C 52.429688 33.886719 51.304688 32.757812 51.304688 31.367188 C 51.304688 29.976562 52.429688 28.851562 53.820312 28.851562 C 55.210938 28.851562 56.339844 29.976562 56.339844 31.367188 C 56.339844 32.757812 55.210938 33.886719 53.820312 33.886719 Z M 49.242188 38.464844 C 47.851562 38.464844 46.726562 37.335938 46.726562 35.945312 C 46.726562 34.554688 47.851562 33.429688 49.242188 33.429688 C 50.632812 33.429688 51.761719 34.554688 51.761719 35.945312 C 51.761719 37.335938 50.632812 38.464844 49.242188 38.464844 Z M 44.664062 33.886719 C 43.273438 33.886719 42.148438 32.757812 42.148438 31.367188 C 42.148438 29.976562 43.273438 28.851562 44.664062 28.851562 C 46.054688 28.851562 47.183594 29.976562 47.183594 31.367188 C 47.183594 32.757812 46.054688 33.886719 44.664062 33.886719 Z M 41.640625 47.605469 C 39.164062 47.605469 37.160156 45.597656 37.160156 43.125 C 37.160156 40.652344 39.164062 38.648438 41.640625 38.648438 C 44.113281 38.648438 46.117188 40.652344 46.117188 43.125 C 46.117188 45.597656 44.113281 47.605469 41.640625 47.605469 Z M 49.242188 24.273438 C 50.632812 24.273438 51.761719 25.398438 51.761719 26.789062 C 51.761719 28.179688 50.632812 29.308594 49.242188 29.308594 C 47.851562 29.308594 46.726562 28.179688 46.726562 26.789062 C 46.726562 25.398438 47.851562 24.273438 49.242188 24.273438 Z M 62.792969 42.382812 C 62.449219 39.972656 62.027344 37.53125 61.367188 35.191406 C 60.226562 31.125 58.359375 27.359375 54.90625 24.574219 C 53.269531 23.25 51.511719 22.429688 49.679688 21.953125 C 49.746094 21.777344 49.785156 21.589844 49.785156 21.394531 C 49.785156 20.511719 49.066406 19.796875 48.183594 19.796875 L 41.148438 19.796875 C 40.261719 19.796875 39.546875 20.511719 39.546875 21.394531 C 39.546875 21.535156 39.566406 21.675781 39.601562 21.804688 C 39.363281 21.839844 39.128906 21.871094 38.890625 21.902344 C 37.957031 22.035156 37.015625 22.152344 36.070312 22.25 L 37.539062 11.046875 L 31.566406 29.734375 L 40.453125 29.734375 L 30.652344 49.589844 L 37.402344 49.589844 C 39.714844 49.589844 41.886719 50.71875 43.199219 52.621094 C 48.558594 60.390625 54.070312 63.957031 59.578125 59.398438 C 64.257812 55.523438 63.5625 47.714844 62.792969 42.382812 " fill-opacity="1" fill-rule="nonzero"/></g><path fill="#ffffff" d="M 22.621094 47.605469 C 20.148438 47.605469 18.140625 45.597656 18.140625 43.125 C 18.140625 40.652344 20.148438 38.648438 22.621094 38.648438 C 25.09375 38.648438 27.097656 40.652344 27.097656 43.125 C 27.097656 45.597656 25.09375 47.605469 22.621094 47.605469 Z M 17.628906 33.488281 L 15.691406 31.550781 C 15.585938 31.441406 15.585938 31.265625 15.691406 31.15625 L 17.601562 29.25 C 17.699219 29.148438 17.835938 29.09375 17.976562 29.09375 L 20.996094 29.09375 L 20.996094 33.640625 L 18.003906 33.640625 C 17.863281 33.640625 17.726562 33.585938 17.628906 33.488281 Z M 17.21875 37.417969 L 12.671875 37.417969 L 12.671875 34.398438 C 12.671875 34.257812 12.726562 34.125 12.828125 34.023438 L 14.75 32.101562 C 14.859375 31.992188 15.035156 31.992188 15.144531 32.101562 L 17.066406 34.023438 C 17.164062 34.125 17.21875 34.257812 17.21875 34.398438 Z M 11.890625 33.640625 L 8.894531 33.640625 L 8.894531 29.09375 L 11.914062 29.09375 C 12.054688 29.09375 12.191406 29.148438 12.289062 29.25 L 14.199219 31.15625 C 14.308594 31.265625 14.308594 31.441406 14.199219 31.550781 L 12.265625 33.488281 C 12.164062 33.585938 12.03125 33.640625 11.890625 33.640625 Z M 12.671875 25.316406 L 17.21875 25.316406 L 17.21875 28.3125 C 17.21875 28.453125 17.164062 28.585938 17.066406 28.6875 L 15.144531 30.609375 C 15.035156 30.71875 14.859375 30.71875 14.75 30.609375 L 12.828125 28.6875 C 12.726562 28.585938 12.671875 28.453125 12.671875 28.3125 Z M 23.605469 62.25 L 32.679688 34.421875 L 23.605469 34.421875 L 30.34375 22.433594 C 28.671875 22.320312 27.011719 22.132812 25.367188 21.902344 C 24.710938 21.808594 24.054688 21.726562 23.398438 21.652344 C 23.414062 21.566406 23.421875 21.480469 23.421875 21.394531 C 23.421875 20.511719 22.707031 19.796875 21.824219 19.796875 L 14.785156 19.796875 C 13.902344 19.796875 13.1875 20.511719 13.1875 21.394531 C 13.1875 21.726562 13.289062 22.035156 13.460938 22.292969 C 12.03125 22.789062 10.65625 23.523438 9.351562 24.574219 C 5.898438 27.359375 4.035156 31.125 2.890625 35.191406 C 2.230469 37.53125 1.8125 39.972656 1.464844 42.382812 C 0.699219 47.714844 0 55.523438 4.679688 59.398438 C 10.191406 63.957031 15.703125 60.390625 21.0625 52.621094 C 22.132812 51.070312 23.769531 50.03125 25.59375 49.703125 L 23.605469 62.25 " fill-opacity="1" fill-rule="nonzero"/><g fill="#ffffff" fill-opacity="1"><g transform="translate(68.440457, 47.231459)"><g><path d="M 16.039062 -7.636719 L 9.929688 -6.109375 L 9.929688 -4.582031 L 6.875 -4.582031 L 6.875 -19.855469 L 0.765625 -21.386719 L 0.765625 0 L 16.039062 0 Z M 16.039062 -7.636719 "/></g></g></g><g fill="#ffffff" fill-opacity="1"><g transform="translate(85.239284, 47.231459)"><g><path d="M 0.765625 -25.96875 L 0.765625 -21.386719 L 6.875 -21.386719 L 6.875 -25.96875 Z M 0.765625 0 L 6.875 0 L 6.875 -19.855469 L 0.765625 -19.855469 Z M 0.765625 0 "/></g></g></g><g fill="#ffffff" fill-opacity="1"><g transform="translate(92.875115, 47.231459)"><g><path d="M 16.039062 -19.855469 L 0.765625 -19.855469 L 0.765625 -15.273438 L 5.347656 -15.273438 L 5.347656 1.527344 L 11.457031 0 L 11.457031 -15.273438 L 16.039062 -15.273438 Z M 16.039062 -19.855469 "/></g></g></g><g fill="#ffffff" fill-opacity="1"><g transform="translate(109.673942, 47.231459)"><g><path d="M 16.039062 -19.855469 L 0.765625 -19.855469 L 0.765625 -15.273438 L 5.347656 -15.273438 L 5.347656 1.527344 L 11.457031 0 L 11.457031 -15.273438 L 16.039062 -15.273438 Z M 16.039062 -19.855469 "/></g></g></g><g fill="#ffffff" fill-opacity="1"><g transform="translate(126.472769, 47.231459)"><g><path d="M 16.039062 -7.636719 L 9.929688 -6.109375 L 9.929688 -4.582031 L 6.875 -4.582031 L 6.875 -19.855469 L 0.765625 -21.386719 L 0.765625 0 L 16.039062 0 Z M 16.039062 -7.636719 "/></g></g></g><g fill="#ffffff" fill-opacity="1"><g transform="translate(143.271597, 47.231459)"><g><path d="M 16.039062 -15.273438 L 16.039062 -19.855469 L 0.765625 -19.855469 L 0.765625 0 L 16.039062 0 L 16.039062 -4.582031 L 6.875 -4.582031 L 6.875 -15.273438 Z M 16.039062 -7.636719 L 16.039062 -12.21875 L 8.402344 -12.21875 L 8.402344 -7.636719 Z M 16.039062 -7.636719 "/></g></g></g><g fill="#ffffff" fill-opacity="1"><g transform="translate(160.070607, 47.231459)"><g/></g></g><g fill="#ffffff" fill-opacity="1"><g transform="translate(162.361356, 47.231459)"><g/></g></g><g fill="#ffb400" fill-opacity="1"><g transform="translate(164.655624, 47.231459)"><g><path d="M 16.039062 1.527344 L 16.039062 -12.21875 L 9.929688 -10.691406 L 9.929688 -4.582031 L 6.875 -4.582031 L 6.875 -15.273438 L 16.039062 -15.273438 L 16.039062 -19.855469 L 0.765625 -19.855469 L 0.765625 0 L 9.929688 0 L 9.929688 1.527344 Z M 16.039062 1.527344 "/></g></g></g><g fill="#ffb400" fill-opacity="1"><g transform="translate(181.454451, 47.231459)"><g><path d="M 6.875 0 L 6.875 -7.636719 L 9.929688 -7.636719 L 9.929688 1.527344 L 16.039062 0 L 16.039062 -19.855469 L 0.765625 -19.855469 L 0.765625 0 Z M 9.929688 -12.21875 L 6.875 -12.21875 L 6.875 -15.273438 L 9.929688 -15.273438 Z M 9.929688 -12.21875 "/></g></g></g><g fill="#ffb400" fill-opacity="1"><g transform="translate(198.253278, 47.231459)"><g><path d="M 0.765625 0 L 6.875 0 L 6.875 -15.273438 L 9.929688 -15.273438 L 9.929688 1.527344 L 16.039062 0 L 16.039062 -15.273438 L 19.09375 -15.273438 L 19.09375 0 L 25.203125 0 L 25.203125 -19.855469 L 0.765625 -19.855469 Z M 0.765625 0 "/></g></g></g><g fill="#ffb400" fill-opacity="1"><g transform="translate(224.215102, 47.231459)"><g><path d="M 16.039062 -15.273438 L 16.039062 -19.855469 L 0.765625 -19.855469 L 0.765625 0 L 16.039062 0 L 16.039062 -4.582031 L 6.875 -4.582031 L 6.875 -15.273438 Z M 16.039062 -7.636719 L 16.039062 -12.21875 L 8.402344 -12.21875 L 8.402344 -7.636719 Z M 16.039062 -7.636719 "/></g></g></g><g fill="#ffb400" fill-opacity="1"><g transform="translate(241.01393, 47.231459)"><g><path d="M 16.039062 -15.273438 L 16.039062 -19.855469 L 0.765625 -19.855469 L 0.765625 -7.636719 L 9.929688 -7.636719 L 9.929688 -4.582031 L 6.875 -4.582031 L 6.875 -6.109375 L 0.765625 -4.582031 L 0.765625 0 L 16.039062 0 L 16.039062 -12.21875 L 6.875 -12.21875 L 6.875 -15.273438 L 9.929688 -15.273438 L 9.929688 -13.746094 Z M 16.039062 -15.273438 "/></g></g></g></svg>