<!DOCTYPE svg PUBLIC "-//W3C//DTD SVG 1.1//EN" "http://www.w3.org/Graphics/SVG/1.1/DTD/svg11.dtd">
<!-- Uploaded to: SVG Repo, www.svgrepo.com, Transformed by: SVG Repo Mixer Tools -->
<svg fill="#a48eff" version="1.1" id="Layer_1" xmlns="http://www.w3.org/2000/svg" xmlns:xlink="http://www.w3.org/1999/xlink" width="800px" height="800px" viewBox="0 0 208 256" enable-background="new 0 0 208 256" xml:space="preserve">
<g id="SVGRepo_bgCarrier" stroke-width="0"/>
<g id="SVGRepo_tracerCarrier" stroke-linecap="round" stroke-linejoin="round"/>
<g id="SVGRepo_iconCarrier"> <path d="M2,35c0,0,0,184.486,0,186c0,17.87,14.416,32.192,32.084,32.899V254H205.82v-9.288c-13.226,0-23.928-10.702-23.928-23.928 s10.702-23.928,23.928-23.928v-0.202V2H35.8C17.526,2,2,16.726,2,35z M172.603,220.683c0,9.389,4.038,17.87,10.298,23.928H35.397 c-13.226,0.101-24.029-10.702-24.029-23.928c0-12.519,9.793-22.817,22.111-23.726l149.726-0.303 C176.743,202.712,172.603,211.192,172.603,220.683z M120.99,59.542c16.282,7.535,35.509,27.714,32.997,51.878H120.99V59.542z M149.484,116.443l-8.487,10.653c0,0-2.771,3.378-7.102,4.244c-0.52,0.173-0.953,0.173-1.472,0.26c-0.26,0-0.433,0.087-0.693,0.087 l-0.087-0.087c-0.433,0.087-0.779,0.173-1.213,0.173c-2.165,0-4.157-0.52-5.976-1.299c-1.905-0.866-3.984-1.386-6.149-1.386 s-4.33,0.52-6.149,1.386c-1.819,0.779-3.897,1.299-5.976,1.299c-2.165,0-4.157-0.52-5.976-1.299 c-1.819-0.866-3.984-1.386-6.149-1.386s-4.33,0.52-6.149,1.386c-1.819,0.779-3.811,1.299-5.976,1.299 c-2.079,0-4.157-0.52-5.976-1.299c-0.779-0.433-1.646-0.606-2.425-0.866V116.27h58.373h15.07v0.173H149.484z M115.707,43.953v67.467 H60.538L115.707,43.953z M57.68,139.827c2.165,0,4.157-0.52,5.976-1.299c1.819-0.866,3.984-1.386,6.149-1.386 s4.244,0.52,6.149,1.386c1.819,0.779,3.897,1.299,5.976,1.299c2.165,0,4.157-0.52,5.976-1.299c1.819-0.866,3.984-1.386,6.149-1.386 s4.244,0.52,6.149,1.386c1.819,0.779,3.811,1.299,5.976,1.299c2.079,0,4.157-0.52,5.976-1.299c1.819-0.866,3.984-1.386,6.149-1.386 s4.244,0.52,6.149,1.386c1.819,0.779,3.811,1.299,5.976,1.299s4.157-0.52,5.976-1.299c1.819-0.866,3.984-1.386,6.149-1.386 s4.33,0.52,6.149,1.386c1.819,0.779,3.811,1.299,5.976,1.299v9.007c-2.079,0-4.157-0.52-5.976-1.299 c-1.905-0.866-3.984-1.386-6.149-1.386s-4.33,0.52-6.149,1.386c-1.819,0.779-3.897,1.299-5.976,1.299s-4.157-0.52-5.976-1.299 c-1.905-0.866-3.984-1.386-6.149-1.386s-4.33,0.52-6.149,1.386c-1.819,0.779-3.897,1.299-5.976,1.299 c-2.165,0-4.157-0.52-5.976-1.299c-1.905-0.866-3.984-1.386-6.149-1.386s-4.33,0.52-6.149,1.386 c-1.819,0.779-3.897,1.299-5.976,1.299s-4.157-0.52-5.976-1.299c-1.905-0.866-3.984-1.386-6.149-1.386s-4.33,0.52-6.149,1.386 c-1.819,0.779-3.897,1.299-5.976,1.299V139.827z"/> </g>
</svg>