<!DOCTYPE svg PUBLIC "-//W3C//DTD SVG 1.1//EN" "http://www.w3.org/Graphics/SVG/1.1/DTD/svg11.dtd">
<!-- Uploaded to: SVG Repo, www.svgrepo.com, Transformed by: SVG Repo Mixer Tools -->
<svg fill="#ffc800" version="1.1" id="Layer_1" xmlns="http://www.w3.org/2000/svg" xmlns:xlink="http://www.w3.org/1999/xlink" viewBox="0 0 496 496" xml:space="preserve" width="800px" height="800px" stroke="#ffc800">
<g id="SVGRepo_bgCarrier" stroke-width="0"/>
<g id="SVGRepo_tracerCarrier" stroke-linecap="round" stroke-linejoin="round"/>
<g id="SVGRepo_iconCarrier"> <g> <g> <g> <path d="M496,312V184h-33.328c-4.376-14.696-10.296-28.952-17.648-42.52l23.592-23.592l-90.504-90.504L354.52,50.976 c-13.568-7.352-27.824-13.272-42.52-17.648V0H184v33.328c-14.696,4.376-28.952,10.296-42.52,17.648l-23.592-23.592 l-90.504,90.504l23.592,23.592c-7.352,13.568-13.272,27.824-17.648,42.52H0v128h33.328c4.376,14.696,10.296,28.952,17.648,42.52 l-23.592,23.592l90.504,90.504l23.592-23.592c13.568,7.352,27.824,13.272,42.52,17.648V496h128v-33.328 c14.696-4.376,28.952-10.296,42.52-17.648l23.592,23.592l90.504-90.504l-23.592-23.592c7.352-13.568,13.272-27.824,17.648-42.52 H496z M448.896,301.928c-4.664,17.416-11.64,34.224-20.736,49.96l-3.072,5.32l20.904,20.904l-67.88,67.88l-20.904-20.904 l-5.32,3.072c-15.736,9.096-32.544,16.072-49.96,20.736L296,450.488V480h-96v-29.512l-5.928-1.584 c-17.416-4.664-34.224-11.64-49.96-20.736l-5.32-3.072L117.888,446l-67.88-67.88l20.904-20.904l-3.072-5.32 c-9.096-15.736-16.072-32.544-20.736-49.96L45.512,296H16v-96h29.512l1.584-5.928c4.664-17.416,11.64-34.224,20.736-49.96 l3.072-5.32L50,117.888l67.88-67.88l20.904,20.904l5.32-3.072c15.736-9.096,32.544-16.072,49.96-20.736L200,45.512V16h96v29.512 l5.928,1.584c17.416,4.664,34.224,11.64,49.96,20.736l5.32,3.072L378.112,50l67.88,67.88l-20.904,20.904l3.072,5.32 c9.096,15.736,16.072,32.544,20.736,49.96l1.592,5.936H480v96h-29.512L448.896,301.928z"/> <path d="M248,64C146.544,64,64,146.544,64,248s82.544,184,184,184s184-82.544,184-184S349.456,64,248,64z M248,416 c-92.64,0-168-75.36-168-168S155.36,80,248,80s168,75.36,168,168S340.64,416,248,416z"/> <path d="M272,166.112l-24-48l-24,48v60.944c-4.92,5.624-8,12.896-8,20.944c0,8.048,3.08,15.312,8,20.944v60.944l24,48l24-48 v-60.944c4.92-5.624,8-12.896,8-20.944c0-8.048-3.08-15.312-8-20.944V166.112z M240,169.888l8-16l8,16v47.248 c-2.576-0.672-5.224-1.136-8-1.136s-5.424,0.464-8,1.136V169.888z M256,326.112l-8,16l-8-16v-47.248 c2.576,0.672,5.224,1.136,8,1.136s5.424-0.464,8-1.136V326.112z M248,264c-8.824,0-16-7.176-16-16c0-8.824,7.176-16,16-16 c8.824,0,16,7.176,16,16C264,256.824,256.824,264,248,264z"/> <rect x="240" y="96" width="16" height="16"/> <rect x="167.996" y="115.296" transform="matrix(0.5 0.866 -0.866 0.5 194.772 -90.7696)" width="16" height="16"/> <rect x="115.284" y="168.001" transform="matrix(-0.866 -0.5 0.5 -0.866 142.0478 390.0638)" width="16" height="16"/> <rect x="96" y="240" width="16" height="16"/> <rect x="115.284" y="312.01" transform="matrix(-0.4999 -0.8661 0.8661 -0.4999 -92.2449 586.7545)" width="16" height="16"/> <rect x="168.005" y="364.695" transform="matrix(-0.8661 -0.4999 0.4999 -0.8661 142.1333 783.4662)" width="16" height="16"/> <rect x="240" y="384" width="16" height="16"/> <rect x="311.988" y="364.713" transform="matrix(-0.5 -0.866 0.866 -0.5 157.209 836.1887)" width="16" height="16"/> <rect x="364.696" y="311.999" transform="matrix(-0.866 -0.5 0.5 -0.866 535.4554 783.475)" width="16" height="16"/> <rect x="384" y="240" width="16" height="16"/> <rect x="364.705" y="168.004" transform="matrix(-0.866 0.5 -0.5 -0.866 783.4778 142.0699)" width="16" height="16"/> <rect x="311.996" y="115.278" transform="matrix(-0.8661 -0.4999 0.4999 -0.8661 535.5141 390.0113)" width="16" height="16"/> </g> </g> </g> </g>
</svg>