<!DOCTYPE svg PUBLIC "-//W3C//DTD SVG 1.1//EN" "http://www.w3.org/Graphics/SVG/1.1/DTD/svg11.dtd">
<!-- Uploaded to: SVG Repo, www.svgrepo.com, Transformed by: SVG Repo Mixer Tools -->
<svg version="1.1" id="Layer_1" xmlns="http://www.w3.org/2000/svg" xmlns:xlink="http://www.w3.org/1999/xlink" viewBox="0 0 512.001 512.001" xml:space="preserve" width="800px" height="800px" fill="#000000">
<g id="SVGRepo_bgCarrier" stroke-width="0"/>
<g id="SVGRepo_tracerCarrier" stroke-linecap="round" stroke-linejoin="round"/>
<g id="SVGRepo_iconCarrier"> <path style="fill:#5E3C16;" d="M361.164,242.254c0-12.661-10.264-22.925-22.925-22.925h-55.758 c-12.661,0-22.925,10.264-22.925,22.925v68.125h101.607v-68.125H361.164z"/> <path style="fill:#7E4F1F;" d="M310.35,258.363c-5.759,0-11.544-1.986-16.25-6.041c-10.419-8.981-11.585-24.707-2.605-35.126 l165.636-192.18c8.982-10.42,24.706-11.587,35.127-2.606c10.419,8.981,11.585,24.707,2.606,35.126L329.226,249.717 C324.301,255.432,317.344,258.363,310.35,258.363z"/> <path style="fill:#C27526;" d="M457.131,25.016l-165.636,192.18c-8.535,9.902-7.887,24.586,1.14,33.729L492.101,22.289 C481.68,13.45,466.069,14.647,457.131,25.016z"/> <path style="fill:#9D2217;" d="M174.72,120.11c0-15.1-12.24-27.34-27.34-27.34c-15.1,0-27.34,12.24-27.34,27.34v35.455h54.681 V120.11H174.72z"/> <path style="fill:#EDA637;" d="M222.234,133.789H72.526c-9.378,0-16.981,7.603-16.981,16.981v137.12 c0,9.378,7.603,16.981,16.981,16.981h149.709c9.378,0,16.981-7.603,16.981-16.981v-137.12 C239.216,141.393,231.612,133.789,222.234,133.789z"/> <path style="fill:#DE3205;" d="M147.38,92.77L147.38,92.77c-15.1,0-27.34,12.24-27.34,27.34v35.455h27.34V92.77z"/> <path style="fill:#F7DC4D;" d="M147.38,133.789H72.526c-9.378,0-16.981,7.603-16.981,16.981v137.12 c0,9.378,7.603,16.981,16.981,16.981h74.854V133.789z"/> <path style="fill:#38979E;" d="M196.221,243.31c0,4.276-3.466,7.741-7.741,7.741H106.28c-4.276,0-7.741-3.466-7.741-7.741v-62.632 c0-4.276,3.466-7.741,7.741-7.741h82.199c4.276,0,7.741,3.466,7.741,7.741V243.31z"/> <path style="fill:#67D1D3;" d="M147.38,172.936h-41.1c-4.276,0-7.742,3.466-7.742,7.741v62.632c0,4.276,3.466,7.742,7.742,7.742 h41.1V172.936z"/> <circle style="fill:#1D1D1F;" cx="389.498" cy="429.982" r="65.645"/> <path style="fill:#3E3E42;" d="M323.856,429.987c0,36.254,29.39,65.645,65.645,65.645V364.342 C353.246,364.341,323.856,393.731,323.856,429.987z"/> <circle style="fill:#E5E5E5;" cx="389.498" cy="429.982" r="19.974"/> <path style="fill:#FFFFFF;" d="M369.528,429.987c0,11.031,8.942,19.974,19.974,19.974v-39.946 C378.469,410.013,369.528,418.956,369.528,429.987z"/> <path style="fill:#C27526;" d="M463.255,279.271H50.227c-9.378,0-16.981,7.603-16.981,16.981v113.459 c0,9.378,7.603,16.981,16.981,16.981h413.029c9.378,0,16.981-7.603,16.981-16.981V296.252 C480.237,286.874,472.634,279.271,463.255,279.271z"/> <path style="fill:#2D2E30;" d="M475.997,270.081c-23.122,0-41.933-18.811-41.933-41.933c0-17.08,10.266-31.809,24.951-38.34v-141.1 c0-9.378,7.603-16.981,16.981-16.981c9.378,0,16.981,7.603,16.981,16.981v154.487c0,9.378-7.603,16.981-16.981,16.981 c-4.395,0-7.97,3.575-7.97,7.97s3.575,7.97,7.97,7.97c3.207,0,5.187-1.766,6.082-2.818c6.074-7.147,16.791-8.015,23.937-1.943 c7.147,6.074,8.016,16.79,1.943,23.937C499.973,264.692,488.323,270.081,475.997,270.081z"/> <path style="fill:#57565C;" d="M487.894,361.01H294.085c-5.656,0-10.241,4.585-10.241,10.241v57.089 c0,5.656,4.585,10.241,10.241,10.241h193.809c9.693,0,17.551-7.858,17.551-17.551V378.56 C505.445,368.868,497.587,361.01,487.894,361.01z"/> <rect x="18.074" y="301.818" style="fill:#F7E05D;" width="36.903" height="46.574"/> <rect x="434.68" y="301.818" style="fill:#9D2217;" width="16.36" height="46.574"/> <rect x="451.05" y="308.678" style="fill:#F7E05D;" width="29.192" height="32.842"/> <path style="fill:#797882;" d="M394.505,361.01h-100.42c-5.656,0-10.242,4.585-10.242,10.241v57.089 c0,5.656,4.585,10.241,10.242,10.241h100.42V361.01z"/> <path style="fill:#EA971E;" d="M256.742,279.271H50.227c-9.378,0-16.981,7.603-16.981,16.981v113.459 c0,9.378,7.603,16.981,16.981,16.981H256.74V279.271H256.742z"/> <path style="fill:#57565C;" d="M69.548,361.01H14.869C6.657,361.01,0,367.667,0,375.879v47.836c0,8.212,6.657,14.869,14.869,14.869 h54.679c6.616,0,11.979-5.363,11.979-11.979V372.99C81.527,366.373,76.163,361.01,69.548,361.01z"/> <circle style="fill:#1D1D1F;" cx="132.512" cy="429.982" r="65.645"/> <path style="fill:#797882;" d="M14.661,438.583h26.103V361.01H14.661C6.564,361.01,0,367.574,0,375.671v48.251 C0,432.019,6.564,438.583,14.661,438.583z"/> <path style="fill:#3E3E42;" d="M66.87,429.987c0,36.254,29.39,65.645,65.645,65.645V364.342 C96.26,364.341,66.87,393.731,66.87,429.987z"/> <circle style="fill:#E5E5E5;" cx="132.512" cy="429.982" r="19.974"/> <path style="fill:#FFFFFF;" d="M112.542,429.987c0,11.031,8.942,19.974,19.974,19.974v-39.946 C121.483,410.013,112.542,418.956,112.542,429.987z"/> <path style="fill:#5A5A60;" d="M473.032,235.54c-2.93-1.18-5.005-4.045-5.005-7.391c0-3.346,2.075-6.213,5.005-7.391V32.003 c-7.962,1.405-14.017,8.341-14.017,16.706v141.1c-14.686,6.531-24.951,21.259-24.951,38.34c0,22.123,17.226,40.289,38.968,41.816 L473.032,235.54L473.032,235.54z"/> </g>
</svg>