<svg width="32" height="32" viewBox="0 0 32 32" fill="none" xmlns="http://www.w3.org/2000/svg">
<g id="Icon/LeftNav/Shooting">
<g id="Flat_Color">
<path id="Vector" d="M15.9996 19.3328C17.8404 19.3328 19.3327 17.8405 19.3327 15.9997C19.3327 14.1589 17.8404 12.6666 15.9996 12.6666C14.1588 12.6666 12.6665 14.1589 12.6665 15.9997C12.6665 17.8405 14.1588 19.3328 15.9996 19.3328Z" fill="url(#paint0_linear_7788_1534)"/>
<path id="Union" fill-rule="evenodd" clip-rule="evenodd" d="M15.9995 9.33349C15.2633 9.33349 14.6664 8.73662 14.6664 8.00037V7.43542C10.9475 8.00958 8.00879 10.948 7.43462 14.6672H7.99959C8.73583 14.6672 9.3327 15.2641 9.3327 16.0003C9.3327 16.7366 8.73583 17.3335 7.99959 17.3335H7.43461C8.00872 21.0527 10.9471 23.9912 14.6664 24.5653V24.0003C14.6664 23.264 15.2633 22.6672 15.9995 22.6672C16.7358 22.6672 17.3326 23.264 17.3326 24.0003V24.5653C21.0519 23.9912 23.9904 21.0527 24.5645 17.3335H23.9995C23.2632 17.3335 22.6663 16.7366 22.6663 16.0003C22.6663 15.2641 23.2632 14.6672 23.9995 14.6672H24.5625C23.9837 10.9517 21.0485 8.01619 17.3326 7.43738V7.99975C17.3326 8.73599 16.7358 9.33286 15.9995 9.33286V9.33349ZM4.74409 17.3335C5.35267 22.5268 9.47268 26.6472 14.6664 27.2558V28.0002C14.6664 28.7365 15.2633 29.3334 15.9995 29.3334C16.7358 29.3334 17.3326 28.7365 17.3326 28.0002V27.2538C22.5229 26.6404 26.6394 22.5237 27.2534 17.3335H27.9994C28.7357 17.3335 29.3325 16.7366 29.3325 16.0003C29.3325 15.2641 28.7357 14.6672 27.9994 14.6672H27.2551C26.6467 9.47362 22.5262 5.35291 17.3326 4.74426V3.99978C17.3326 3.26353 16.7358 2.66666 15.9995 2.66666C15.2633 2.66666 14.6664 3.26353 14.6664 3.99978V4.74427C9.47311 5.35298 5.35271 9.47384 4.74409 14.6672H3.99962C3.26337 14.6672 2.6665 15.2641 2.6665 16.0003C2.6665 16.7366 3.26337 17.3335 3.99962 17.3335H4.74409Z" fill="url(#paint1_linear_7788_1534)"/>
</g>
</g>
<defs>
<linearGradient id="paint0_linear_7788_1534" x1="15.9996" y1="12.6666" x2="15.9996" y2="19.3328" gradientUnits="userSpaceOnUse">
<stop stop-color="#7B85F1"/>
<stop offset="1" stop-color="#949CDD"/>
</linearGradient>
<linearGradient id="paint1_linear_7788_1534" x1="15.9995" y1="2.66666" x2="15.9995" y2="29.3334" gradientUnits="userSpaceOnUse">
<stop stop-color="#7B85F1"/>
<stop offset="1" stop-color="#949CDD"/>
</linearGradient>
</defs>
</svg>
