<!DOCTYPE svg PUBLIC "-//W3C//DTD SVG 1.1//EN" "http://www.w3.org/Graphics/SVG/1.1/DTD/svg11.dtd">
<!-- Uploaded to: SVG Repo, www.svgrepo.com, Transformed by: SVG Repo Mixer Tools -->
<svg height="800px" width="800px" version="1.1" id="_x32_" xmlns="http://www.w3.org/2000/svg" xmlns:xlink="http://www.w3.org/1999/xlink" viewBox="0 0 512 512" xml:space="preserve" fill="#000000">
<g id="SVGRepo_bgCarrier" stroke-width="0"/>
<g id="SVGRepo_tracerCarrier" stroke-linecap="round" stroke-linejoin="round"/>
<g id="SVGRepo_iconCarrier"> <style type="text/css"> .st0{fill:#a48eff;} </style> <g> <path class="st0" d="M383.852,105.425C372.058,51.133,332.534,0,258.789,0C185.95,0,146.481,49.876,134.151,103.419 C57.85,126.246,28.575,246.294,57.143,311.825c10.056,23.072,33.411,56.271,45.72,68.58c0.014,0.013,0.027,0.034,0.048,0.055 c-3.126,2.377-6.182,4.931-9.06,7.81c-14.006,13.896-23.952,34.27-23.863,62.212c0,3.558,0.151,7.24,0.467,11.06 c0.213,2.376,1.051,4.348,2.061,6.031c1.93,3.132,4.547,5.557,7.831,8.03c5.742,4.266,13.724,8.449,24.082,12.591 c31.02,12.323,83.479,23.787,153.597,23.808c56.971,0,102.328-7.611,133.931-17.042c15.813-4.733,28.17-9.885,37.044-14.996 c4.451-2.582,8.03-5.117,10.86-7.871c1.414-1.388,2.651-2.844,3.674-4.52c1.01-1.683,1.848-3.654,2.054-6.031 c0.323-3.82,0.474-7.487,0.474-11.032c0.014-18.621-4.314-33.871-11.472-46.056c-6.367-10.867-14.823-19.117-23.966-25.608 c12.618-13.332,34.558-44.834,44.229-67.02C482.662,248.039,455.674,132.585,383.852,105.425z M154.511,182.2 c0.11-0.048,0.193-0.123,0.31-0.172c1.044-0.398,2.149-0.549,2.775-0.604l4.231,0.9c10.077,28.527,9.899,34.448,9.672,35.513 c9.143-24.103-23.746-71.286,87.291-64.272c111.037-7.014,78.148,40.169,87.291,64.272c-0.227-1.078-0.399-7.095,9.918-36.199 l2.068-0.22c0.488-0.02,2.96,0.226,4.588,1.312c0.275,0.179,0.515,0.399,0.762,0.605c0.866,2.912,1.779,6.202,2.747,9.356 c-0.103,2.72-0.618,6.161-1.861,10.522c-4.266,15.03-8.092,23.768-11.602,28.617c-1.758,2.446-3.366,3.984-5.152,5.234 c-1.792,1.244-3.846,2.226-6.539,3.188l-4.231,1.511l-0.783,4.43c-4.952,27.73-19.24,43.323-29.791,55.076l-1.985,2.205v2.974 c0,14.061,0,17.276,0,25.49c0,1.175,0.124,2.309,0.316,3.428l-46.51,51.223l-46.53-51.243c0.192-1.112,0.336-2.239,0.336-3.407 c0-8.215,0-11.423,0-25.49v-2.974l-1.985-2.205c-10.551-11.753-24.838-27.345-29.791-55.076l-0.783-4.43l-4.231-1.511 c-2.693-0.962-4.746-1.944-6.539-3.188c-2.645-1.868-5.042-4.416-7.845-9.643c-2.768-5.193-5.701-12.949-8.909-24.207 c-0.741-2.603-1.222-4.876-1.518-6.882C151.784,191.789,153.206,186.479,154.511,182.2z M263.487,391.038l43.81-48.248 c0.501,0.865,1.03,1.71,1.607,2.493c4.122,5.522,9.836,9.61,16.06,13.182c3.002,1.696,6.141,3.236,9.301,4.657 c-0.57,7.721-4.272,16.671-10.874,23.766c-7.199,7.748-17.42,13.278-30.162,13.285 C284.548,400.173,274.574,397.563,263.487,391.038z M271.352,413.526l-1.229,5.036c0.508-2.198,1.092-5.098,1.092-5.098 L271.352,413.526z M267.086,400.888c-0.941-0.33-1.731-0.598-2.582-0.894l0.103-0.323 C265.438,400.091,266.262,400.503,267.086,400.888z M260.231,397.288c-0.598,0.193-1.209,0.385-1.91,0.618 c-0.866-0.282-1.6-0.522-2.301-0.742c0.666-0.385,1.333-0.804,1.999-1.223C258.761,396.402,259.496,396.862,260.231,397.288z M222.823,400.173c-12.742-0.007-22.963-5.536-30.162-13.285c-6.594-7.074-10.296-16.005-10.866-23.712 c5.042-2.28,10.138-4.959,14.741-8.153c3.908-2.734,7.487-5.804,10.331-9.527c0.66-0.866,1.271-1.793,1.841-2.754l43.858,48.296 C241.479,397.563,231.505,400.173,222.823,400.173z M252.14,399.994c-1.697,0.584-3.572,1.25-5.626,1.992 c1.793-0.769,3.606-1.634,5.433-2.583L252.14,399.994z M246.514,418.562l-1.23-5.036l0.137-0.062 C245.422,413.464,246.006,416.364,246.514,418.562z M129.947,145.293c0.179,6.429,0.722,12.735,1.656,18.821 c1.237,8.036,2.418,14.59,3.558,20.037c-0.522,2.301-0.796,4.794-0.796,7.466c0.006,4.644,0.796,9.85,2.507,15.84 c4.52,15.743,8.6,25.91,13.882,33.37c2.638,3.702,5.647,6.676,8.916,8.943c1.985,1.381,4.046,2.439,6.127,3.38 c5.963,27.606,20.47,45.018,30.567,56.256c0,11.512,0,14.947,0,22.53c0,0.934-0.371,2.28-1.82,4.204 c-2.122,2.857-6.525,6.319-11.753,9.252c-5.214,2.968-11.21,5.529-16.458,7.384c-2.892,1.016-6.416,2.109-10.262,3.304 c-0.103-14.63-5.234-30.814-19.206-47.767C101.077,264.882,80.38,164.073,129.947,145.293z M411.218,399.39 c11.3,11.361,19.281,26.706,19.37,51.118c0,2.927-0.137,5.997-0.398,9.191c-0.33,0.522-1.546,1.888-3.675,3.448 c-4.032,3.036-11.038,6.855-20.531,10.633c-28.554,11.403-79.522,22.764-147.958,22.75c-55.57,0-99.586-7.459-129.501-16.403 c-14.94-4.451-26.377-9.314-33.74-13.573c-3.682-2.116-6.326-4.094-7.776-5.523c-0.639-0.618-0.989-1.092-1.154-1.346 c-0.255-3.187-0.399-6.278-0.399-9.205c0.021-16.293,3.668-28.568,9.335-38.329c4.52-7.769,10.475-14.019,17.22-19.199 c8.188,15.655,6.676,31.412,6.676,31.412s27.4-20.552,35.313-51.394c6.375-2.047,12.385-3.826,17.468-5.605 c1.113-0.398,2.302-0.872,3.456-1.319c1.243,8.861,5.598,18.066,12.577,25.621c8.291,8.971,20.463,15.552,35.32,15.538 c5.241,0,10.791-0.852,16.582-2.618c-1.126,0.42-2.143,0.79-3.359,1.251c-39.27,9.382-40.458,32.483-32.236,41.035 c13.607,14.15,32.758,0.495,44.339-21.706c-6.368,15.538-18.553,56.875-18.553,56.875s6.45,2.927,12.9,2.927 c2.919-27.504,15.785-65.524,15.826-65.634c0.034,0.11,12.9,38.13,15.819,65.634c6.45,0,12.9-2.927,12.9-2.927 s-12.186-41.337-18.553-56.875c11.581,22.201,30.732,35.856,44.34,21.706c8.222-8.552,7.034-31.652-32.236-41.035 c-0.522-0.2-0.941-0.35-1.449-0.543c4.898,1.278,9.61,1.91,14.088,1.91c14.858,0.014,27.029-6.567,35.32-15.538 c6.999-7.583,11.361-16.815,12.59-25.704c1.099,0.432,2.218,0.941,3.298,1.346c3.984,1.484,8.497,2.926,13.291,4.465 c7.501,31.501,35.581,52.589,35.581,52.589s-1.676-17.097,7.721-33.37C404.652,393.51,408.093,396.272,411.218,399.39z M243.169,414.715c-10.345,19.851-20.724,24.549-22.07,25.126c-2.054,0.879-5.31,0.2-6.155-0.295 c-3.517-2.054-2.294-4.293-2.047-6.258C213.007,432.416,218.756,416.686,243.169,414.715z M273.468,414.715 c24.412,1.971,30.162,17.701,30.272,18.573c0.247,1.965,1.47,4.204-2.047,6.258c-0.845,0.495-4.101,1.174-6.154,0.295 C294.192,439.264,283.812,434.566,273.468,414.715z M375.136,308.314c-13.607,16.506-18.828,32.285-19.192,46.606 c-2.198-0.721-4.279-1.422-6.079-2.102c-7.892-2.926-16.231-6.732-22.049-10.812c-2.906-2.033-5.145-4.122-6.443-5.894 c-1.312-1.82-1.669-3.077-1.683-4.177c0-7.583,0-11.004,0-22.53c10.098-11.238,24.605-28.65,30.567-56.256 c2.081-0.941,4.142-1.999,6.127-3.38c4.939-3.407,9.129-8.367,12.68-15.091c3.572-6.76,6.738-15.408,10.118-27.222 c1.711-6.004,2.501-11.21,2.501-15.84c0-1.154-0.076-2.267-0.172-3.359c1.414-6.107,2.898-13.951,4.464-24.144 c0.811-5.282,1.306-10.743,1.552-16.287C429.998,171.8,409.535,266.572,375.136,308.314z"/> </g> </g>
</svg>