<!DOCTYPE svg PUBLIC "-//W3C//DTD SVG 1.1//EN" "http://www.w3.org/Graphics/SVG/1.1/DTD/svg11.dtd">
<!-- Uploaded to: SVG Repo, www.svgrepo.com, Transformed by: SVG Repo Mixer Tools -->
<svg height="800px" width="800px" version="1.1" id="Layer_1" xmlns="http://www.w3.org/2000/svg" xmlns:xlink="http://www.w3.org/1999/xlink" viewBox="0 0 511.994 511.994" xml:space="preserve" fill="#ffffff">
<g id="SVGRepo_bgCarrier" stroke-width="0"/>
<g id="SVGRepo_tracerCarrier" stroke-linecap="round" stroke-linejoin="round"/>
<g id="SVGRepo_iconCarrier"> <g> <path style="fill:#ffffff;" d="M272.587,433.523l-1-15.998c76.408-4.647,141.025-58.21,159.767-132.426l15.502,3.936 C426.434,370.01,355.946,428.451,272.587,433.523z"/> <path style="fill:#ffffff;" d="M59.163,250.879c-0.184-3.496-0.28-7.023-0.28-10.559c0.128-108.764,88.262-196.898,197.018-197.026 c7.647,0,15.286,0.44,22.885,1.32l-1.84,15.886c-6.983-0.808-14.014-1.208-21.046-1.208 c-99.925,0.112-180.908,81.087-181.028,181.02c0,3.256,0.088,6.495,0.264,9.703L59.163,250.879z"/> </g> <path d="M165.911,411.749v-20.494c33.34-18.878,45.059-61.209,26.181-94.542s-61.209-45.059-94.542-26.181 s-45.059,61.201-26.181,94.542c6.191,10.935,15.246,19.99,26.181,26.181v20.478c-64.649,3.04-97.525,46.715-97.525,76.136v24.125 h263.403v-24.125C263.428,458.448,230.552,414.773,165.911,411.749z"/> <path style="fill:#ffdd00;" d="M414.452,150.218V129.74c33.34-18.878,45.059-61.209,26.181-94.542 C421.755,1.866,379.424-9.861,346.091,9.017s-45.059,61.209-26.181,94.542c6.191,10.935,15.246,19.99,26.181,26.181v20.478 c-64.649,3.024-97.517,46.731-97.517,76.112v24.141h263.395v-24.133C511.969,196.949,479.093,153.241,414.452,150.218z"/> </g>
</svg>