<svg width="32" height="32" viewBox="0 0 32 32" fill="none" xmlns="http://www.w3.org/2000/svg">
<g id="Icon/LeftNav/Casual">
<g id="Group 206">
<path id="Union" d="M12.541 15.1855C13.1383 14.9059 13.8574 15.1486 14.1465 15.7266C14.4352 16.3046 14.185 16.9997 13.5879 17.2793C13.39 17.372 13.1795 17.4715 12.9521 17.5791L10.7666 18.6143C10.238 18.8655 9.97273 18.9916 9.97266 19.2266C9.97266 19.4617 10.2379 19.5876 10.7666 19.8389L12.9521 20.874C14.8496 21.7725 15.4864 22.0469 16.2793 22.0469C17.0721 22.0468 17.7083 21.7724 19.6055 20.874L21.792 19.8389C22.3206 19.5876 22.585 19.4617 22.585 19.2266C22.5849 18.9916 22.3205 18.8655 21.792 18.6143L19.6055 17.5791C19.3781 17.4715 19.1678 17.3721 18.9697 17.2793C18.3726 16.9996 18.1232 16.3046 18.4121 15.7266C18.7012 15.1486 19.4193 14.906 20.0166 15.1855C20.2191 15.2804 20.4339 15.3827 20.6592 15.4893L22.5615 16.3896C23.4107 16.7918 24.144 17.1385 24.6572 17.457C24.9234 17.6222 25.2075 17.8264 25.4336 18.083C25.5816 18.2511 25.7206 18.4611 25.8057 18.7109C25.8603 18.8294 25.8916 18.9617 25.8916 19.1006V23.7725C25.8916 24.5967 25.2632 25.124 24.791 25.4541C24.2758 25.8142 23.5317 26.2114 22.6426 26.6855L20.5225 27.8154C18.814 28.7275 17.6796 29.3329 16.2793 29.333C14.8788 29.333 13.7439 28.7277 12.0352 27.8154L9.91504 26.6855C9.02603 26.2114 8.28275 25.8141 7.76758 25.4541C7.2954 25.1241 6.66699 24.5969 6.66699 23.7725V19.1006C6.66704 18.9617 6.69727 18.8294 6.75195 18.7109C6.83698 18.4611 6.97604 18.2511 7.12402 18.083C7.35007 17.8264 7.63522 17.6222 7.90137 17.457C8.41461 17.1386 9.14715 16.7916 9.99609 16.3896L11.8975 15.4893C12.1232 15.3824 12.338 15.2807 12.541 15.1855ZM16.2793 2.66699C19.1902 2.66718 21.5496 5.02658 21.5498 7.9375C21.5498 10.4213 19.8319 12.5025 17.5195 13.0605V19.1006C17.5195 19.7855 16.9642 20.3407 16.2793 20.3408C15.5943 20.3408 15.0391 19.7856 15.0391 19.1006V13.0605C12.7263 12.5028 11.0078 10.4215 11.0078 7.9375C11.008 5.02646 13.3682 2.66699 16.2793 2.66699Z" fill="url(#paint0_linear_7788_1415)"/>
</g>
</g>
<defs>
<linearGradient id="paint0_linear_7788_1415" x1="16.2793" y1="2.66699" x2="16.2793" y2="29.333" gradientUnits="userSpaceOnUse">
<stop stop-color="#7B85F1"/>
<stop offset="1" stop-color="#949CDD"/>
</linearGradient>
</defs>
</svg>
