<!DOCTYPE svg PUBLIC "-//W3C//DTD SVG 1.1//EN" "http://www.w3.org/Graphics/SVG/1.1/DTD/svg11.dtd">
<!-- Uploaded to: SVG Repo, www.svgrepo.com, Transformed by: SVG Repo Mixer Tools -->
<svg xmlns:dc="http://purl.org/dc/elements/1.1/" xmlns:cc="http://creativecommons.org/ns#" xmlns:rdf="http://www.w3.org/1999/02/22-rdf-syntax-ns#" xmlns:svg="http://www.w3.org/2000/svg" xmlns="http://www.w3.org/2000/svg" xmlns:sodipodi="http://sodipodi.sourceforge.net/DTD/sodipodi-0.dtd" xmlns:inkscape="http://www.inkscape.org/namespaces/inkscape" width="800px" height="800px" viewBox="0 0 30 30" version="1.1" id="svg822" inkscape:version="0.92.4 (f8dce91, 2019-08-02)" sodipodi:docname="sound.svg" fill="#ffffff" stroke="#ffffff">
<g id="SVGRepo_bgCarrier" stroke-width="0"/>
<g id="SVGRepo_tracerCarrier" stroke-linecap="round" stroke-linejoin="round"/>
<g id="SVGRepo_iconCarrier"> <defs id="defs816"/> <sodipodi:namedview id="base" pagecolor="#ffffff" bordercolor="#ffffff" borderopacity="1.0" inkscape:pageopacity="0.0" inkscape:pageshadow="2" inkscape:zoom="12.610071" inkscape:cx="6.284755" inkscape:cy="17.357738" inkscape:document-units="px" inkscape:current-layer="layer1" showgrid="true" units="px" inkscape:window-width="1366" inkscape:window-height="713" inkscape:window-x="0" inkscape:window-y="0" inkscape:window-maximized="1" showguides="false" inkscape:guide-bbox="true"> <sodipodi:guide position="21.126168,22.794393" orientation="1,0" id="guide1575" inkscape:locked="false"/> <sodipodi:guide position="22.682243,23.285047" orientation="1,0" id="guide1635" inkscape:locked="false"/> <sodipodi:guide position="22.682243,7.6455921" orientation="0,1" id="guide1639" inkscape:locked="false"/> <sodipodi:guide position="18.859863,18.859863" orientation="1,0" id="guide1242" inkscape:locked="false"/> <inkscape:grid type="xygrid" id="grid1103"/> </sodipodi:namedview> <metadata id="metadata819"> <rdf:rdf> <cc:work rdf:about=""> <dc:format>image/svg+xml</dc:format> <dc:type rdf:resource="http://purl.org/dc/dcmitype/StillImage"/> <dc:title/> </cc:work> </rdf:rdf> </metadata> <g inkscape:label="Layer 1" inkscape:groupmode="layer" id="layer1" transform="translate(0,-289.0625)"> <path style="fill:#ffffff;fill-opacity:1;stroke:none;stroke-width:2;stroke-miterlimit:4;stroke-dasharray:none;stroke-opacity:1" d="m 15,3.0488281 c -0.776606,0 -1.534312,0.079435 -2.269531,0.2207031 L 6,10 H 4.1523438 c -0.7024388,1.522283 -1.1035157,3.212591 -1.1035157,5 0,1.787406 0.4010769,3.477718 1.1035157,5 H 6 l 6.730469,6.730469 C 13.465688,26.871738 14.223394,26.951172 15,26.951172 Z M 15,26.951172 H 14.042969 C 14.359739,26.976379 14.676871,27 15,27 Z M 23.480469,6.5195312 22.076172,7.9238281 C 23.884335,9.7319919 25,12.232655 25,15 c 0,2.767345 -1.115665,5.268008 -2.923828,7.076172 l 1.404297,1.404297 C 25.653522,21.307415 27,18.307785 27,15 27,11.692215 25.653522,8.692585 23.480469,6.5195312 Z M 21.359375,8.640625 19.955078,10.044922 C 21.220348,11.310192 22,13.06108 22,15 c 0,1.93892 -0.779652,3.689808 -2.044922,4.955078 l 1.404297,1.404297 C 22.989535,19.729215 24,17.47936 24,15 24,12.52064 22.989535,10.270785 21.359375,8.640625 Z m -2.121094,2.121094 -1.40625,1.40625 C 18.554408,12.890346 19,13.88951 19,15 c 0,1.11049 -0.445592,2.109654 -1.167969,2.832031 l 1.40625,1.40625 C 20.325548,18.151014 21,16.65093 21,15 21,13.34907 20.325548,11.848986 19.238281,10.761719 Z" transform="translate(0,289.0625)" id="rect858" inkscape:connector-curvature="0"/> </g> </g>
</svg>