<!DOCTYPE svg PUBLIC "-//W3C//DTD SVG 1.1//EN" "http://www.w3.org/Graphics/SVG/1.1/DTD/svg11.dtd">
<!-- Uploaded to: SVG Repo, www.svgrepo.com, Transformed by: SVG Repo Mixer Tools -->
<svg width="800px" height="800px" viewBox="0 -0.5 25 25" fill="none" xmlns="http://www.w3.org/2000/svg">
<g id="SVGRepo_bgCarrier" stroke-width="0"/>
<g id="SVGRepo_tracerCarrier" stroke-linecap="round" stroke-linejoin="round"/>
<g id="SVGRepo_iconCarrier"> <path fill-rule="evenodd" clip-rule="evenodd" d="M11.5 16C11.3369 13.8621 9.63793 12.1631 7.5 12C9.63793 11.8369 11.3369 10.1379 11.5 8C11.6631 10.1379 13.3621 11.8369 15.5 12C13.3621 12.1631 11.6631 13.8621 11.5 16V16Z" stroke="#eeff00" stroke-width="1.5" stroke-linecap="round" stroke-linejoin="round"/> <path d="M16.5 19C16.4128 18.3646 16.0239 17.1535 14.5 17C16.0239 16.8465 16.4128 15.6354 16.5 15C16.6535 16.5239 17.8646 16.9128 18.5 17C17.8646 17.0872 16.6535 17.4761 16.5 19Z" fill="#707070"/> <path fill-rule="evenodd" clip-rule="evenodd" d="M16.5 19C16.4182 17.9311 15.5689 17.0818 14.5 17C15.5689 16.9182 16.4182 16.0689 16.5 15C16.5818 16.0689 17.4311 16.9182 18.5 17C17.4311 17.0818 16.5818 17.9311 16.5 19Z" stroke="#eeff00" stroke-width="1.5" stroke-linecap="round" stroke-linejoin="round"/> <path d="M16.5 5C16.6535 6.52394 17.8646 6.91282 18.5 7C17.8646 7.08719 16.6535 7.47606 16.5 9C16.4128 8.3646 16.0239 7.15348 14.5 7C16.0239 6.84652 16.4128 5.6354 16.5 5Z" fill="#707070"/> <path fill-rule="evenodd" clip-rule="evenodd" d="M16.5 5C16.4182 6.06887 15.5689 6.91823 14.5 7C15.5689 7.08177 16.4182 7.93113 16.5 9C16.5818 7.93113 17.4311 7.08177 18.5 7C17.4311 6.91823 16.5818 6.06887 16.5 5Z" stroke="#eeff00" stroke-width="1.5" stroke-linecap="round" stroke-linejoin="round"/> </g>
</svg>