<svg width="32" height="32" viewBox="0 0 32 32" fill="none" xmlns="http://www.w3.org/2000/svg">
  <path d="M12.541 15.186c.597-.28 1.316-.037 1.605.54a1.146 1.146 0 0 1-.558 1.553l-.636.3-2.185 1.035c-.529.252-.794.378-.794.613s.265.36.794.612l2.185 1.035c1.898.899 2.534 1.173 3.327 1.173s1.43-.275 3.326-1.173l2.187-1.035c.529-.251.793-.377.793-.612s-.265-.361-.793-.613l-2.187-1.035-.635-.3a1.146 1.146 0 0 1-.558-1.552 1.22 1.22 0 0 1 1.605-.542l.642.304 1.902.9c.85.403 1.583.75 2.096 1.068.266.165.55.37.777.626.148.168.287.378.372.628a.9.9 0 0 1 .086.39v4.672c0 .824-.629 1.351-1.101 1.681-.515.36-1.26.757-2.148 1.232l-2.12 1.13c-1.709.912-2.843 1.517-4.244 1.517s-2.535-.605-4.244-1.518l-2.12-1.13c-.889-.474-1.632-.87-2.147-1.23-.473-.33-1.101-.858-1.101-1.682V19.1a.9.9 0 0 1 .085-.39c.085-.25.224-.46.372-.628.226-.257.511-.46.777-.626.514-.318 1.246-.665 2.095-1.067l1.902-.9q.338-.162.643-.305m3.738-12.519a5.27 5.27 0 0 1 1.24 10.394v6.04a1.24 1.24 0 0 1-2.48 0v-6.04a5.272 5.272 0 0 1 1.24-10.394" fill="url(#a)"/>
  <defs>
    <linearGradient id="a" x1="16.279" y1="2.667" x2="16.279" y2="29.333" gradientUnits="userSpaceOnUse">
      <stop stop-color="#fff"/>
      <stop offset="1" stop-color="#ffff"/>
    </linearGradient>
  </defs>
</svg>
