<!DOCTYPE svg PUBLIC "-//W3C//DTD SVG 1.1//EN" "http://www.w3.org/Graphics/SVG/1.1/DTD/svg11.dtd">
<!-- Uploaded to: SVG Repo, www.svgrepo.com, Transformed by: SVG Repo Mixer Tools -->
<svg width="800px" height="800px" viewBox="0 0 24 24" xmlns="http://www.w3.org/2000/svg" fill="#000000" transform="rotate(0)">
<g id="SVGRepo_bgCarrier" stroke-width="0"/>
<g id="SVGRepo_tracerCarrier" stroke-linecap="round" stroke-linejoin="round"/>
<g id="SVGRepo_iconCarrier"> <defs> <style>.cls-1{fill:#2eb1b7;}.cls-2{fill:#ffffff;}.cls-3{fill:#6c6b75;}.cls-4{fill:#5a5963;}.cls-5{fill:#000000;}</style> </defs> <g id="Icons"> <rect class="cls-1" height="14" rx="2" width="14" x="5" y="5"/> <rect class="cls-2" height="9" rx="2" width="14" x="5" y="5"/> <path class="cls-3" d="M10,1h4a2,2,0,0,1,2,2V5a0,0,0,0,1,0,0H8A0,0,0,0,1,8,5V3A2,2,0,0,1,10,1Z"/> <path class="cls-4" d="M8,19h8a0,0,0,0,1,0,0v2a2,2,0,0,1-2,2H10a2,2,0,0,1-2-2V19A0,0,0,0,1,8,19Z"/> </g> <g data-name="Layer 4" id="Layer_4"> <path class="cls-5" d="M17,4V3a3,3,0,0,0-3-3H10A3,3,0,0,0,7,3V4A3,3,0,0,0,4,7V17a3,3,0,0,0,3,3v1a3,3,0,0,0,3,3h4a3,3,0,0,0,3-3V20a3,3,0,0,0,3-3V7A3,3,0,0,0,17,4ZM9,3a1,1,0,0,1,1-1h4a1,1,0,0,1,1,1V4H9Zm6,18a1,1,0,0,1-1,1H10a1,1,0,0,1-1-1V20h6Zm3-4a1,1,0,0,1-1,1H7a1,1,0,0,1-1-1V7A1,1,0,0,1,7,6H17a1,1,0,0,1,1,1Z"/> <path class="cls-5" d="M13,11.586V9a1,1,0,0,0-2,0v3a1,1,0,0,0,.293.707l2,2a1,1,0,0,0,1.414-1.414Z"/> </g> </g>
</svg>