<svg xmlns="http://www.w3.org/2000/svg" viewBox="0 0.6000000238418579 206.6300048828125 35" data-asc="0.7" width="206.6300048828125" height="35"><defs/><g fill="#000000"><g transform="translate(0, 0)"><path d="M9.83 35.60Q6.90 35.60 4.69 34.19Q2.48 32.77 1.24 30.31Q0 27.85 0 24.75Q0 21.65 1.24 19.19Q2.48 16.72 4.69 15.30Q6.90 13.88 9.83 13.88Q11.90 13.88 13.51 14.55Q15.13 15.22 16.10 16.15Q17.07 17.07 17.25 17.80L17.25 0.60L23.63 0.60L23.63 35L17.32 35L17.32 31.43Q16.93 32.30 15.85 33.27Q14.78 34.25 13.23 34.92Q11.68 35.60 9.83 35.60M11.63 30.55Q13.23 30.55 14.50 29.81Q15.78 29.07 16.51 27.76Q17.25 26.45 17.25 24.75Q17.25 23.05 16.51 21.74Q15.78 20.42 14.50 19.67Q13.23 18.93 11.63 18.93Q10.15 18.93 8.93 19.66Q7.70 20.40 6.96 21.71Q6.23 23.02 6.23 24.75Q6.23 26.48 6.96 27.79Q7.70 29.10 8.93 29.82Q10.15 30.55 11.63 30.55ZM34.17 24.30Q34.17 27.05 35.27 28.69Q36.38 30.32 38.83 30.32Q41.30 30.32 42.40 28.69Q43.50 27.05 43.50 24.30L43.50 14.47L49.75 14.47L49.75 25.02Q49.75 28.20 48.48 30.59Q47.20 32.98 44.76 34.29Q42.33 35.60 38.83 35.60Q35.35 35.60 32.91 34.29Q30.48 32.98 29.20 30.59Q27.93 28.20 27.93 25.02L27.93 14.47L34.17 14.47L34.17 24.30ZM65.45 30.55Q67.08 30.55 68.10 30Q69.13 29.45 69.45 29.18L72.40 33.55Q72.05 33.83 71.10 34.33Q70.15 34.83 68.69 35.21Q67.23 35.60 65.35 35.60Q62.10 35.60 59.53 34.29Q56.95 32.98 55.46 30.54Q53.98 28.10 53.98 24.73Q53.98 21.32 55.46 18.90Q56.95 16.47 59.53 15.17Q62.10 13.88 65.35 13.88Q67.20 13.88 68.64 14.27Q70.08 14.67 71.05 15.19Q72.03 15.70 72.40 16.02L69.38 20.42Q69.20 20.23 68.70 19.88Q68.20 19.52 67.39 19.23Q66.58 18.93 65.45 18.93Q64.08 18.93 62.84 19.65Q61.60 20.38 60.83 21.67Q60.05 22.98 60.05 24.73Q60.05 26.48 60.83 27.79Q61.60 29.10 62.84 29.82Q64.08 30.55 65.45 30.55ZM89.40 14.47L96.70 14.47L86.68 24.27L97.60 35L90.13 35L81.60 26.42L81.60 35L75.25 35L75.25 0.60L81.60 0.60L81.60 22L89.40 14.47ZM126.85 13.88Q129.15 13.88 130.86 14.85Q132.57 15.82 133.54 17.84Q134.50 19.85 134.50 23L134.50 35L128.25 35L128.25 24.02Q128.25 21.42 127.49 19.98Q126.73 18.52 124.60 18.52Q123.40 18.52 122.40 19.16Q121.40 19.80 120.81 21.02Q120.23 22.25 120.23 24.02L120.23 35L114.38 35L114.38 24.02Q114.38 21.42 113.50 19.98Q112.63 18.52 110.73 18.52Q109.50 18.52 108.51 19.15Q107.53 19.77 106.96 20.99Q106.40 22.20 106.40 24.02L106.40 35L100.10 35L100.10 14.47L106.40 14.47L106.40 17.47Q106.67 16.70 107.66 15.88Q108.65 15.05 110.13 14.46Q111.60 13.88 113.30 13.88Q115.15 13.88 116.38 14.50Q117.60 15.13 118.36 16.09Q119.13 17.05 119.53 18.10Q119.88 17.13 120.90 16.15Q121.93 15.17 123.48 14.52Q125.03 13.88 126.85 13.88ZM155.68 35L155.68 31.43Q155.45 31.98 154.53 32.98Q153.60 33.98 152.04 34.79Q150.48 35.60 148.38 35.60Q145.43 35.60 143.15 34.19Q140.88 32.77 139.59 30.31Q138.30 27.85 138.30 24.75Q138.30 21.65 139.59 19.19Q140.88 16.72 143.15 15.30Q145.43 13.88 148.38 13.88Q150.43 13.88 151.94 14.56Q153.45 15.25 154.39 16.16Q155.33 17.07 155.60 17.80L155.60 14.47L161.90 14.47L161.90 35L155.68 35M144.53 24.75Q144.53 26.48 145.30 27.79Q146.08 29.10 147.35 29.82Q148.63 30.55 150.13 30.55Q151.70 30.55 152.93 29.81Q154.15 29.07 154.86 27.76Q155.58 26.45 155.58 24.75Q155.58 23.05 154.86 21.74Q154.15 20.42 152.93 19.67Q151.70 18.93 150.13 18.93Q148.63 18.93 147.35 19.66Q146.08 20.40 145.30 21.71Q144.53 23.02 144.53 24.75ZM165.38 14.47L169.08 14.47L169.08 6.05L175.38 6.05L175.38 14.47L180.23 14.47L180.23 19.75L175.38 19.75L175.38 27.18Q175.38 28.65 175.85 29.46Q176.33 30.27 177.35 30.27Q178.13 30.27 178.63 29.96Q179.13 29.65 179.23 29.52L181.48 34.08Q181.33 34.23 180.51 34.60Q179.70 34.98 178.44 35.29Q177.18 35.60 175.60 35.60Q172.78 35.60 170.93 33.96Q169.08 32.33 169.08 28.88L169.08 19.75L165.38 19.75L165.38 14.47ZM197.95 13.88Q200.05 13.88 202.05 14.74Q204.05 15.60 205.34 17.47Q206.63 19.35 206.63 22.38L206.63 35L200.25 35L200.25 23.48Q200.25 20.95 199.11 19.73Q197.98 18.50 196.08 18.50Q194.80 18.50 193.64 19.19Q192.48 19.88 191.74 21.09Q191.00 22.30 191.00 23.85L191.00 35L184.63 35L184.63 0.60L191.00 0.60L191.00 17.75Q191.25 16.90 192.23 16Q193.20 15.10 194.70 14.49Q196.20 13.88 197.95 13.88Z"/></g></g></svg>